<?xml version="1.0" encoding="utf-8"?><svg xmlns="http://www.w3.org/2000/svg" xmlns:xlink="http://www.w3.org/1999/xlink"><symbol fill="none" stroke="currentColor" stroke-width="2" stroke-linecap="round" stroke-linejoin="round" class="bfeather bfeather-check" viewBox="0 0 24 24" id="check" xmlns="http://www.w3.org/2000/svg"><path d="M20 6 9 17l-5-5"/></symbol><symbol fill="none" stroke="currentColor" stroke-width="2" stroke-linecap="round" stroke-linejoin="round" class="afeather afeather-check-circle" viewBox="0 0 24 24" id="check-circle" xmlns="http://www.w3.org/2000/svg"><path d="M22 11.08V12a10 10 0 1 1-5.93-9.14"/><path d="M22 4 12 14.01l-3-3"/></symbol><symbol fill="none" stroke="currentColor" stroke-width="2" stroke-linecap="round" stroke-linejoin="round" class="dfeather dfeather-edit" viewBox="0 0 24 24" id="edit" xmlns="http://www.w3.org/2000/svg"><path d="M11 4H4a2 2 0 0 0-2 2v14a2 2 0 0 0 2 2h14a2 2 0 0 0 2-2v-7"/><path d="M18.5 2.5a2.121 2.121 0 0 1 3 3L12 15l-4 1 1-4 9.5-9.5z"/></symbol><symbol fill="none" stroke="currentColor" stroke-width="2" stroke-linecap="round" stroke-linejoin="round" class="cfeather cfeather-edit-3" viewBox="0 0 24 24" id="edit-3" xmlns="http://www.w3.org/2000/svg"><path d="M12 20h9M16.5 3.5a2.121 2.121 0 0 1 3 3L7 19l-4 1 1-4L16.5 3.5z"/></symbol><symbol fill="none" stroke="currentColor" stroke-width="2" stroke-linecap="round" stroke-linejoin="round" class="efeather efeather-filter" viewBox="0 0 24 24" id="filter" xmlns="http://www.w3.org/2000/svg"><path d="M22 3H2l8 9.46V19l4 2v-8.54L22 3z"/></symbol><symbol fill="none" stroke="currentColor" stroke-width="2" stroke-linecap="round" stroke-linejoin="round" class="ffeather ffeather-plus-circle" viewBox="0 0 24 24" id="plus-circle" xmlns="http://www.w3.org/2000/svg"><circle cx="12" cy="12" r="10"/><path d="M12 8v8M8 12h8"/></symbol><symbol fill="none" stroke="currentColor" stroke-width="2" stroke-linecap="round" stroke-linejoin="round" class="gfeather gfeather-trash-2" viewBox="0 0 24 24" id="trash-2" xmlns="http://www.w3.org/2000/svg"><path d="M3 6h18M19 6v14a2 2 0 0 1-2 2H7a2 2 0 0 1-2-2V6m3 0V4a2 2 0 0 1 2-2h4a2 2 0 0 1 2 2v2M10 11v6M14 11v6"/></symbol></svg>
